<?xml version="1.0" standalone="no"?><!DOCTYPE svg PUBLIC "-//W3C//DTD SVG 1.1//EN" "http://www.w3.org/Graphics/SVG/1.1/DTD/svg11.dtd"><svg t="1769445146640" class="icon" viewBox="0 0 1024 1024" version="1.1" xmlns="http://www.w3.org/2000/svg" p-id="13658" xmlns:xlink="http://www.w3.org/1999/xlink" width="200" height="200"><path d="M870.628719 251.608194C781.103013 181.391954 665.904494 152.500896 556.63047 124.78011c-87.185165-21.869433-119.80646-26.477374-176.784013-61.073501C338.009281 37.302378 244.972763-8.923314 236.85401 1.53598c-9.362165 9.14274 19.748318 40.301196 31.377882 78.334993 17.407776 54.125018 3.510812 98.010168-40.740047 131.362883-102.325542 77.237864-236.028965 212.111559-226.739942 398.842872 12.799835 254.680154 247.731672 431.025315 534.959979 412.52041 288.398578-18.358621 482.590367-202.749393 488.44172-457.502689 3.43767-123.317272-51.199342-230.543322-153.598025-313.486255zM531.030799 604.298516l44.177718-46.079407 47.68853-48.419949c4.681083-3.43767 3.510812-5.778211-2.340542-6.948482-3.43767 0-31.377882-5.70507-59.244952-11.483281l-54.710154-11.556423c-1.170271-63.414042 17.480918-103.715238 48.858801-108.323179 40.740048-4.607941 82.577224 48.346807 97.644458 145.186705 12.799835 81.918947-15.067235 152.135187-53.393599 155.645999-26.769942 3.43767-51.199342-23.112846-68.68026-68.021983z m360.58965 14.994093c-24.502542 5.70507-44.25086-25.380245-58.220966-71.459653 15.140377-13.896964 27.940212-26.550516 40.740048-36.863526 22.088859-18.504905 40.666906-36.936668 44.177718-40.374338 3.43767-3.43767 2.340541-5.778211-2.340542-6.948482-3.510812 0-26.769942-3.43767-51.199342-8.045611-13.896964-3.43767-30.207612-5.70507-47.688529-9.215881 0-55.295289 15.140377-107.152908 47.688529-112.93112 36.058965-6.948482 67.509989 61.0735 76.799013 137.141094 9.289023 92.158815-18.651189 140.578764-50.029071 148.697517z" fill="#0077FA" p-id="13659"></path></svg>